<svg xmlns="http://www.w3.org/2000/svg" viewBox="0 0 254.57 164.73"><defs><style>.cls-1{fill:#e30b17;}.cls-2{fill:#e30613;}</style></defs><g id="Camada_2" data-name="Camada 2"><g id="Camada_1-2" data-name="Camada 1"><path class="cls-1" d="M120.82,43.14c-3.32.13-5.61,2.54-6.73,5.18L88.24,109,60.37,44.15H39.13l38.4,87.74L76,135.33a44.08,44.08,0,0,1-5.5,9.73c-2.08,2.68-3.32,5.3-11.17,5.69a36.26,36.26,0,0,1-11.15-1.38c-3.79-.82-6.85-2.49-7.84-1.91l-1.22.65c-9.74,10.39,7.86,17.12,18.56,16.5,5.93.12,12.65.74,18.84-2.72,2.77-1.54,6.64-6.21,9.45-10.55s4-6.72,6.72-13.19l36-78h3.43v42.6c-.41,9.66,2.22,17,7.49,22s12.73,7.49,22.39,7.49a39.19,39.19,0,0,0,10.7-1.48,25.85,25.85,0,0,0,9.06-4.45l-5.93-14.65a17.15,17.15,0,0,1-11.19,3.62q-5.92,0-9.22-3.46c-2.2-2.3-3.3-9.71-3.3-9.71V60.15h24v-16h-24v-20h-20v19"/><path class="cls-2" d="M229.22,97.23V58.67A58.74,58.74,0,0,0,170.55,0H58.67A58.74,58.74,0,0,0,0,58.67V106a58.73,58.73,0,0,0,57.69,58.65c8.83-3.75,17.32-7.94,24.56-14H58.67A44.72,44.72,0,0,1,14,106V58.67A44.72,44.72,0,0,1,58.67,14H170.55a44.72,44.72,0,0,1,44.67,44.67V97.23l7,6.74Z"/><path class="cls-2" d="M192.78,84l-1.11,1.07a5.81,5.81,0,0,0,0,8.42l22.56,21.72a44.43,44.43,0,0,0,1-9.29V97.23L201.52,84A6.38,6.38,0,0,0,192.78,84Z"/><path class="cls-2" d="M252.77,85.11,251.66,84a6.38,6.38,0,0,0-8.74,0l-13.7,13.19V106a58.64,58.64,0,0,1-1.12,11.32l24.67-23.75A5.82,5.82,0,0,0,252.77,85.11Z"/><path class="cls-2" d="M229.22,97.23l-7,6.74-7-6.74V106a44.43,44.43,0,0,1-1,9.29l3.46,3.33a6.83,6.83,0,0,0,9.06,0l1.35-1.3A58.64,58.64,0,0,0,229.22,106Z"/></g></g></svg>